<svg id="Layer_1" enable-background="new 0 0 512.051 512.051" height="512" viewBox="0 0 512.051 512.051" width="512" xmlns="http://www.w3.org/2000/svg"><g><path d="m482.051 56.026h-360c-11.046 0-20 8.954-20 20v260c0 11.046 8.954 20 20 20h360c11.046 0 20-8.954 20-20v-260c0-11.046-8.954-20-20-20z" fill="#fff"/><path d="m342.051 416.026v-60h-80v60" fill="#ff9c9b"/><path d="m502.051 296.026v40c0 11.05-8.95 20-20 20h-360c-11.05 0-20-8.95-20-20v-40z" fill="#f1c6dd"/><path d="m222.051 416.026h160v40h-160z" fill="#f1c6dd"/><path d="m13.021 78.995c28.494-24.502 158.58 105.653 134.06 134.061-28.493 24.502-158.58-105.654-134.06-134.061z" fill="#fff7bf"/><path d="m97.901 198.175c22.74 15.67 41.92 22.14 49.18 14.88s.79-26.44-14.88-49.18z" fill="#fff"/><path d="m155.909 250.168c7.81 7.811 54.142 25.858 54.142 25.858s-18.047-46.332-25.858-54.142-20.474-7.81-28.284 0-7.81 20.473 0 28.284z" fill="#fff7bf"/><path d="m342.051 196.026c0 33.137-26.863 60-60 60-79.589-3.16-79.566-116.852.001-120 33.136 0 59.999 26.862 59.999 60z" fill="#ccf5fc"/><path d="m282.051 196.026 60-100 60 100z" fill="#f8e3ee"/><path d="m312.922 144.573-30.871 51.452h60c0-21.845-11.678-40.958-29.129-51.452z" fill="#fff"/><path d="m312.051 322.026c0 5.523-4.477 10-10 10-13.265-.527-13.261-19.475 0-20 5.523 0 10 4.477 10 10z" fill="#fff"/><g fill="#dc72a9"><path d="m482.051 46.026h-360c-16.542 0-30 13.458-30 30v28.579c-13.846-12.16-27.799-22.195-40.437-29-21.281-11.459-36.644-12.699-45.664-3.68-9.018 9.018-7.779 24.381 3.68 45.663 9.312 17.292 24.668 37.044 43.241 55.618 12.898 12.898 26.364 24.244 39.181 33.092v129.727c0 16.542 13.458 30 30 30h130v40h-30c-5.522 0-10 4.478-10 10v40c0 5.522 4.478 10 10 10h160c5.522 0 10-4.478 10-10v-40c0-5.522-4.478-10-10-10h-30v-40h130c16.542 0 30-13.458 30-30v-260c-.001-16.541-13.459-29.999-30.001-29.999zm-453.226 64.934c-8.63-15.076-9.202-22.779-8.659-24.82 2.042-.54 9.745.03 24.82 8.659 29.713 16.593 69.699 56.579 86.292 86.292 8.63 15.076 9.202 22.779 8.659 24.82-2.037.545-9.744-.029-24.82-8.659-29.714-16.593-69.699-56.579-86.292-86.292zm343.226 335.066h-140v-20h140zm-40-40h-60v-40h60zm160-70c0 5.514-4.486 10-10 10h-360c-5.514 0-10-4.486-10-10v-117.728c12.007 5.784 20.27 8.395 29.764 7.6-3.777 10.584-1.437 22.882 7.022 31.341 0 .001 0 .001.001.001 8.625 8.624 46.255 23.691 57.583 28.104 3.658 1.431 7.888.573 10.701-2.247 2.805-2.806 3.687-7.004 2.247-10.701-4.413-11.328-19.48-48.958-28.105-57.584-8.459-8.458-20.757-10.799-31.341-7.021.994-8.639-2.158-19.785-9.45-33.327-8.493-15.772-22.016-33.592-38.422-50.697v-47.74c0-5.514 4.486-10 10-10h360c5.514 0 10 4.486 10 10zm-329.072-107.072c3.901-3.897 10.245-3.898 14.139-.005 2.554 2.632 8.438 14.666 14.529 28.672-14.002-6.09-26.033-11.973-28.67-14.527-3.896-3.899-3.895-10.242.002-14.14z"/><path d="m350.626 90.881c-3.702-6.418-13.45-6.417-17.15 0l-24.354 40.591c-45.078-19.616-97.671 15.217-97.07 64.554 2.686 86.858 124.577 94.984 139.287 9.999h50.712c3.603 0 6.927-1.938 8.702-5.073 1.774-3.135 1.727-6.982-.127-10.071zm-68.575 155.145c-27.57 0-50-22.43-50-50-.484-33.937 34.89-58.88 66.632-47.156l-25.207 42.012c-1.854 3.089-1.901 6.937-.127 10.071 1.775 3.136 5.1 5.073 8.702 5.073h48.995c-4.645 22.794-24.848 40-48.995 40zm48.995-60h-31.333l16.105-26.843c7.628 6.997 13.085 16.324 15.228 26.843zm20.293 0c-2.552-17.759-11.794-33.387-25.083-44.238l15.795-26.325 42.338 70.563z"/></g></g></svg>